Format : AVI
Format/Info : Audio Video Interleave
File size : 643 MiB
Duration : 1h 20mn
Overall bit rate : 1 118 Kbps
Writing application : MEncoder SVN-r29352(20090610-gcc4.3.3)
Writing library : MPlayer

Video
ID : 0
Format : AVC
Format/Info : Advanced Video Codec
Format profile : Baseline@L2.1
Format settings, CABAC : No
Format settings, ReFrames : 1 frame
Codec ID : avc1
Duration : 1h 20mn
Bit rate : 973 Kbps
Width : 632 pixels
Height : 308 pixels
Display aspect ratio : 2.2:1
Frame rate : 25.000 fps
Resolution : 24 bits
Colorimetry : 4:2:0
Scan type : Progressive
Bits/(Pixel*Frame) : 0.200
Stream size : 563 MiB (87%)
Writing library : x264 core 67 r1163+17 7d945df

Audio
ID : 1
Format : MPEG Audio
Format version : Version 1
Format profile : Layer 3
Codec ID : 55
Codec ID/Hint : MP3
Duration : 1h 20mn
Bit rate mode : Constant
Bit rate : 128 Kbps
Channel(s) : 2 channels
Sampling rate : 44.1 KHz
Resolution : 16 bits
Stream size : 73.6 MiB (11%)
Alignment : Aligned on interleaves
Interleave, duration : 26 ms (0.65 video frame)
Interleave, preload duration : 522 ms

Starring
Martin Compston
Alfie Allen
Pat Shortt
Bruce Jones

1974. Power cuts, strikes and boot-boy aggro on the terraces. Flares, Chopper bikes and beer at fourteen pence a pint.
Joe McCain, 17 and restless, is bored with the flatline tedium of a life that seems like it's going nowhere. Enter JANE, moving to the beat of a music that Joe's never heard, a vision of loveliness who opens the door to a whole world of sound, movement and all-nighter dancing at The Wigan Casino - the home of Northern Soul! Swept along on this tide of pulsating dance and lust, Joe finally finds somewhere he belongs and the acceptance and true love he yearns for.
 
http://www.imdb.com/title/tt1259227/

screens
 
http://img813.imageshack.us/img813/3728/soulboyh264viceavisnaps.jpg 
http://img207.imageshack.us/img207/3728/soulboyh264viceavisnaps.jpg 
http://img525.imageshack.us/img525/3728/soulboyh264viceavisnaps.jpg 
http://img230.imageshack.us/img230/3728/soulboyh264viceavisnaps.jpg